<svg width="120" height="100" viewBox="0 0 120 100" fill="none" xmlns="http://www.w3.org/2000/svg">
<rect id="Rectangle 1" width="120" height="100" fill="white"/>
<g id="darkGroup">
<path id="dark1" opacity="0.7" d="M57.375 64.7443C58.5167 62.6808 61.4833 62.6808 62.625 64.7443L77.4551 91.5476C78.5614 93.5471 77.1153 96 74.8301 96H45.1699C42.8847 96 41.4386 93.5471 42.5449 91.5476L57.375 64.7443Z" fill="#AD00FF"/>
<path id="dark2" opacity="0.7" d="M57.375 42.7443C58.5167 40.6808 61.4833 40.6808 62.625 42.7443L77.4551 69.5476C78.5614 71.5471 77.1153 74 74.8301 74H45.1699C42.8847 74 41.4386 71.5471 42.5449 69.5476L57.375 42.7443Z" fill="#C350CD"/>
</g>
<g id="light Group">
<path id="light1" opacity="0.7" d="M57.375 64.7443C58.5167 62.6808 61.4833 62.6808 62.625 64.7443L77.4551 91.5476C78.5614 93.5471 77.1153 96 74.8301 96H45.1699C42.8847 96 41.4386 93.5471 42.5449 91.5476L57.375 64.7443Z" fill="#EB00FF"/>
</g>
</svg>
